<?xml version="1.0" encoding="UTF-8" standalone="no"?>
<svg
   xmlns:dc="http://purl.org/dc/elements/1.1/"
   xmlns:cc="http://creativecommons.org/ns#"
   xmlns:rdf="http://www.w3.org/1999/02/22-rdf-syntax-ns#"
   xmlns:svg="http://www.w3.org/2000/svg"
   xmlns="http://www.w3.org/2000/svg"
   xmlns:sodipodi="http://sodipodi.sourceforge.net/DTD/sodipodi-0.dtd"
   xmlns:inkscape="http://www.inkscape.org/namespaces/inkscape"
   width="438.253754pt"
   height="165.996pt"
   viewBox="0 0 438.253754 165.996"
   version="1.2"
   id="svg52"
   sodipodi:docname="sirius.svg"
   inkscape:version="0.92.4 (5da689c313, 2019-01-14)">
  <metadata
     id="metadata56">
    <rdf:RDF>
      <cc:Work
         rdf:about="">
        <dc:format>image/svg+xml</dc:format>
        <dc:type
           rdf:resource="http://purl.org/dc/dcmitype/StillImage" />
        <dc:title></dc:title>
      </cc:Work>
    </rdf:RDF>
  </metadata>
  <sodipodi:namedview
     pagecolor="#ffffff"
     bordercolor="#666666"
     borderopacity="1"
     objecttolerance="10"
     gridtolerance="10"
     guidetolerance="10"
     inkscape:pageopacity="0"
     inkscape:pageshadow="2"
     inkscape:window-width="792"
     inkscape:window-height="480"
     id="namedview54"
     showgrid="false"
     inkscape:zoom="0.6331948"
     inkscape:cx="98.7058"
     inkscape:cy="110.664"
     inkscape:window-x="1862"
     inkscape:window-y="359"
     inkscape:window-maximized="0"
     inkscape:current-layer="svg52" />
  <defs
     id="defs11">
    <clipPath
       id="clip1">
      <path
         d="M 411 110 L 438.253906 110 L 438.253906 138 L 411 138 Z M 411 110 "
         id="path2" />
    </clipPath>
    <clipPath
       id="clip2">
      <path
         d="M 411 139 L 438.253906 139 L 438.253906 165.996094 L 411 165.996094 Z M 411 139 "
         id="path5" />
    </clipPath>
    <clipPath
       id="clip3">
      <path
         d="M 382 139 L 410 139 L 410 165.996094 L 382 165.996094 Z M 382 139 "
         id="path8" />
    </clipPath>
  </defs>
  <g
     id="surface791">
    <path
       style=" stroke:none;fill-rule:nonzero;fill:rgb(0%,18.798828%,36.499023%);fill-opacity:1;"
       d="M 142.667969 147.476562 L 147.382812 113.386719 L 137.328125 147.476562 Z M 142.667969 147.476562 "
       id="path13" />
    <path
       style=" stroke:none;fill-rule:nonzero;fill:rgb(0%,18.798828%,36.499023%);fill-opacity:1;"
       d="M 236.273438 147.476562 L 241.652344 112.496094 L 230.933594 147.476562 Z M 236.273438 147.476562 "
       id="path15" />
    <path
       style=" stroke:none;fill-rule:nonzero;fill:rgb(0%,18.798828%,36.499023%);fill-opacity:1;"
       d="M 130.363281 134.394531 L 71.390625 134.457031 L 70.269531 87.226562 L 50.109375 134.421875 L 52.398438 73.066406 L 28.613281 134.457031 L 25.328125 134.457031 L 22.488281 108.796875 L 0 142.007812 L 7.878906 142.007812 L 17.871094 126.628906 L 19.417969 142.007812 L 32.976562 142.007812 L 44.359375 111.820312 L 42.636719 142.007812 L 54.648438 142.007812 L 64.613281 117.222656 L 64.355469 142.007812 L 136.375 142.007812 L 154.238281 82.125 L 146.007812 142.007812 L 230.378906 142.007812 L 246.898438 89.023438 L 240.007812 142.007812 L 399.75 142.007812 L 402.941406 138.285156 L 399.75 134.457031 L 249.027344 134.480469 L 257.535156 38.746094 L 224.183594 134.457031 L 155.183594 134.394531 L 166.5 24.296875 Z M 130.363281 134.394531 "
       id="path17" />
    <g
       clip-path="url(#clip1)"
       clip-rule="nonzero"
       id="g21">
      <path
         style=" stroke:none;fill-rule:nonzero;fill:rgb(0%,18.798828%,36.499023%);fill-opacity:1;"
         d="M 411.433594 132.738281 L 416.082031 137.386719 L 438.175781 110.644531 Z M 411.433594 132.738281 "
         id="path19" />
    </g>
    <path
       style=" stroke:none;fill-rule:nonzero;fill:rgb(0%,18.798828%,36.499023%);fill-opacity:1;"
       d="M 382.941406 110.542969 L 405.035156 137.285156 L 409.683594 132.636719 Z M 382.941406 110.542969 "
       id="path23" />
    <g
       clip-path="url(#clip2)"
       clip-rule="nonzero"
       id="g27">
      <path
         style=" stroke:none;fill-rule:nonzero;fill:rgb(0%,18.798828%,36.499023%);fill-opacity:1;"
         d="M 411.511719 143.902344 L 438.253906 165.996094 L 416.160156 139.253906 Z M 411.511719 143.902344 "
         id="path25" />
    </g>
    <g
       clip-path="url(#clip3)"
       clip-rule="nonzero"
       id="g31">
      <path
         style=" stroke:none;fill-rule:nonzero;fill:rgb(0%,18.798828%,36.499023%);fill-opacity:1;"
         d="M 382.988281 165.832031 L 409.730469 143.738281 L 405.082031 139.089844 Z M 382.988281 165.832031 "
         id="path29" />
    </g>
    <path
       style=" stroke:none;fill-rule:nonzero;fill:rgb(0%,18.798828%,36.499023%);fill-opacity:1;"
       d="M 186.664062 8.09375 L 169.089844 16.066406 L 170.90625 19.238281 Z M 186.664062 8.09375 "
       id="path33" />
    <path
       style=" stroke:none;fill-rule:nonzero;fill:rgb(0%,18.798828%,36.499023%);fill-opacity:1;"
       d="M 157.015625 0 L 164.992188 17.578125 L 168.164062 15.757812 Z M 157.015625 0 "
       id="path35" />
    <path
       style=" stroke:none;fill-rule:nonzero;fill:rgb(0%,18.798828%,36.499023%);fill-opacity:1;"
       d="M 178.652344 37.828125 L 170.679688 20.253906 L 167.507812 22.074219 Z M 178.652344 37.828125 "
       id="path37" />
    <path
       style=" stroke:none;fill-rule:nonzero;fill:rgb(0%,18.798828%,36.499023%);fill-opacity:1;"
       d="M 148.996094 29.699219 L 164.75 18.554688 L 166.574219 21.726562 Z M 148.996094 29.699219 "
       id="path39" />
    <path
       style=" stroke:none;fill-rule:nonzero;fill:rgb(0%,18.798828%,36.499023%);fill-opacity:1;"
       d="M 277.816406 22.328125 L 260.238281 30.304688 L 262.0625 33.476562 Z M 277.816406 22.328125 "
       id="path41" />
    <path
       style=" stroke:none;fill-rule:nonzero;fill:rgb(0%,18.798828%,36.499023%);fill-opacity:1;"
       d="M 248.167969 14.238281 L 256.144531 31.8125 L 259.316406 29.992188 Z M 248.167969 14.238281 "
       id="path43" />
    <path
       style=" stroke:none;fill-rule:nonzero;fill:rgb(0%,18.798828%,36.499023%);fill-opacity:1;"
       d="M 269.804688 52.066406 L 261.832031 34.492188 L 258.65625 36.308594 Z M 269.804688 52.066406 "
       id="path45" />
    <path
       style=" stroke:none;fill-rule:nonzero;fill:rgb(0%,18.798828%,36.499023%);fill-opacity:1;"
       d="M 240.148438 43.9375 L 255.90625 32.789062 L 257.726562 35.964844 Z M 240.148438 43.9375 "
       id="path47" />
    <path
       style=" stroke:none;fill-rule:nonzero;fill:rgb(0%,18.798828%,36.499023%);fill-opacity:1;"
       d="M 133.359375 75.007812 C 134.90625 67.234375 139.378906 49.164062 115.949219 49.164062 C 100.398438 49.164062 91.269531 56.519531 88.410156 69.964844 C 87.519531 74.167969 87.96875 78.476562 89.625 82.050781 C 93.9375 89.929688 102.585938 94.238281 108.980469 100.226562 C 112.207031 102.855469 113.636719 106.007812 112.652344 110.628906 C 111.382812 116.617188 107.746094 119.875 101.546875 119.875 C 94.71875 119.875 93.351562 114.9375 94.824219 108.003906 L 96.097656 102.011719 L 81.390625 102.011719 L 80.160156 107.792969 C 77.167969 121.871094 81.371094 131.75 99.023438 131.75 C 113.417969 131.75 124.949219 123.972656 128.121094 109.054688 C 129.570312 102.222656 129 97.496094 125.007812 92.558594 C 121.757812 88.5625 114.078125 82.679688 109.890625 79.632812 C 105.894531 76.691406 102.601562 74.378906 103.875 68.390625 C 105.015625 63.03125 108.589844 61.035156 113.527344 61.035156 C 121.199219 61.035156 120.828125 67.234375 119.421875 73.855469 L 119.175781 75.007812 Z M 189.679688 95.917969 L 191.675781 95.917969 C 195.246094 95.917969 198.796875 96.023438 201.960938 96.96875 C 206.6875 98.441406 205.179688 105.058594 204.257812 109.894531 L 203.519531 113.359375 C 202.402344 118.613281 200.988281 125.757812 201.585938 129.855469 L 217.769531 129.855469 L 218.082031 128.386719 C 215.542969 126.496094 218.101562 113.464844 219.507812 106.847656 L 220.222656 103.484375 C 221.832031 95.917969 220.386719 90.351562 211.914062 89.195312 L 211.957031 88.984375 C 222.125 87.617188 226.25 78.582031 228.082031 69.964844 C 231.164062 55.46875 222.4375 51.054688 209.722656 51.054688 L 181.878906 51.054688 L 165.128906 129.855469 L 179.839844 129.855469 L 187.054688 95.917969 Z M 194.132812 62.613281 L 205.058594 62.613281 C 210.605469 62.71875 213.972656 64.1875 212.09375 73.011719 C 210.417969 80.894531 205.96875 84.046875 201.066406 84.359375 L 189.507812 84.359375 Z M 299.117188 104.746094 C 297.507812 112.308594 295.375 119.875 285.8125 119.875 C 275.832031 119.875 276.914062 112.308594 278.519531 104.746094 L 289.933594 51.054688 L 275.222656 51.054688 L 263.542969 106.007812 C 259.835938 123.449219 263.746094 131.75 283.183594 131.75 C 302.410156 131.75 309.851562 123.449219 313.558594 106.007812 L 325.238281 51.054688 L 310.527344 51.054688 Z M 378.628906 75.007812 C 380.175781 67.234375 384.648438 49.164062 361.21875 49.164062 C 345.667969 49.164062 336.539062 56.519531 333.679688 69.964844 C 332.785156 74.167969 333.234375 78.476562 334.894531 82.050781 C 339.207031 89.929688 347.855469 94.238281 354.25 100.226562 C 357.472656 102.855469 358.90625 106.007812 357.921875 110.628906 C 356.648438 116.617188 353.015625 119.875 346.816406 119.875 C 339.988281 119.875 338.621094 114.9375 340.09375 108.003906 L 341.367188 102.011719 L 326.65625 102.011719 L 325.429688 107.792969 C 322.433594 121.871094 326.640625 131.75 344.292969 131.75 C 358.6875 131.75 370.21875 123.972656 373.386719 109.054688 C 374.839844 102.222656 374.269531 97.496094 370.277344 92.558594 C 367.027344 88.5625 359.347656 82.679688 355.160156 79.632812 C 351.164062 76.691406 347.871094 74.378906 349.144531 68.390625 C 350.285156 63.03125 353.859375 61.035156 358.796875 61.035156 C 366.46875 61.035156 366.097656 67.234375 364.691406 73.855469 L 364.445312 75.007812 Z M 378.628906 75.007812 "
       id="path49" />
  </g>
</svg>
