<?xml version="1.0" encoding="UTF-8" standalone="no"?>
<svg
   xmlns:dc="http://purl.org/dc/elements/1.1/"
   xmlns:cc="http://creativecommons.org/ns#"
   xmlns:rdf="http://www.w3.org/1999/02/22-rdf-syntax-ns#"
   xmlns:svg="http://www.w3.org/2000/svg"
   xmlns="http://www.w3.org/2000/svg"
   viewBox="0 0 370.66666 716"
   height="716"
   width="370.66666"
   xml:space="preserve"
   id="svg2"
   version="1.1"><metadata
     id="metadata8"><rdf:RDF><cc:Work
         rdf:about=""><dc:format>image/svg+xml</dc:format><dc:type
           rdf:resource="http://purl.org/dc/dcmitype/StillImage" /><dc:title></dc:title></cc:Work></rdf:RDF></metadata><defs
     id="defs6" /><g
     transform="matrix(1.3333333,0,0,-1.3333333,0,716)"
     id="g10"><g
       id="g12"><path
         id="path14"
         style="fill:#ffffff;fill-opacity:1;fill-rule:nonzero;stroke:none"
         d="M 36,501 H 242 V 36 H 36 Z" /><text
         id="text18"
         style="font-variant:normal;font-size:14.00024414px;font-family:'Nimbus Roman';-inkscape-font-specification:NimbusRomNo9L-Regu;writing-mode:lr-tb;fill:#000000;fill-opacity:1;fill-rule:nonzero;stroke:none"
         transform="matrix(1,0,0,-1,65,481.80078)"><tspan
           id="tspan16"
           y="0"
           x="0 9.0021572 15.750275 27.00647 33.754589 40.502705 47.250824 53.99894 60.761059 64.499123 72.003258 78.009361 84.757477 89.251556 95.25766 99.009727 102.76179 109.50991 116.25803 120.01009 126.75821 133.50633 140.25444">Compound Score: 21.6168</tspan></text>
<path
         id="path20"
         style="fill:none;stroke:#000000;stroke-width:1;stroke-linecap:butt;stroke-linejoin:round;stroke-miterlimit:10;stroke-dasharray:none;stroke-opacity:1"
         d="m 161,474 c 0,0 -72,0 -72,0 -6,0 -12,-6 -12,-12 0,0 0,-22 0,-22 0,-6 6,-12 12,-12 0,0 72,0 72,0 6,0 12,6 12,12 0,0 0,22 0,22 0,6 -6,12 -12,12" /><text
         id="text24"
         style="font-variant:normal;font-size:14.00024414px;font-family:'Nimbus Roman';-inkscape-font-specification:NimbusRomNo9L-Regu;writing-mode:lr-tb;fill:#000000;fill-opacity:1;fill-rule:nonzero;stroke:none"
         transform="matrix(1,0,0,-1,85,459.80078)"><tspan
           id="tspan22"
           y="0"
           x="0">C</tspan></text>
<text
         id="text28"
         style="font-variant:normal;font-size:11.66601562px;font-family:'Nimbus Roman';-inkscape-font-specification:NimbusRomNo9L-Regu;writing-mode:lr-tb;fill:#000000;fill-opacity:1;fill-rule:nonzero;stroke:none"
         transform="matrix(1,0,0,-1,95,456.13672)"><tspan
           id="tspan26"
           y="0"
           x="0 5.9963322">14</tspan></text>
<text
         id="text32"
         style="font-variant:normal;font-size:14.00024414px;font-family:'Nimbus Roman';-inkscape-font-specification:NimbusRomNo9L-Regu;writing-mode:lr-tb;fill:#000000;fill-opacity:1;fill-rule:nonzero;stroke:none"
         transform="matrix(1,0,0,-1,108,459.80078)"><tspan
           id="tspan30"
           y="0"
           x="0">H</tspan></text>
<text
         id="text36"
         style="font-variant:normal;font-size:11.66601562px;font-family:'Nimbus Roman';-inkscape-font-specification:NimbusRomNo9L-Regu;writing-mode:lr-tb;fill:#000000;fill-opacity:1;fill-rule:nonzero;stroke:none"
         transform="matrix(1,0,0,-1,118,456.13672)"><tspan
           id="tspan34"
           y="0"
           x="0 5.9963322">20</tspan></text>
<text
         id="text40"
         style="font-variant:normal;font-size:14.00024414px;font-family:'Nimbus Roman';-inkscape-font-specification:NimbusRomNo9L-Regu;writing-mode:lr-tb;fill:#000000;fill-opacity:1;fill-rule:nonzero;stroke:none"
         transform="matrix(1,0,0,-1,131,459.80078)"><tspan
           id="tspan38"
           y="0"
           x="0 9.7441702">NO</tspan></text>
<text
         id="text46"
         style="font-variant:normal;font-size:11.66601562px;font-family:'Nimbus Roman';-inkscape-font-specification:NimbusRomNo9L-Regu;writing-mode:lr-tb;fill:#000000;fill-opacity:1;fill-rule:nonzero;stroke:none"
         transform="matrix(1,0,0,-1,151,456.13672)"><tspan
           id="tspan42"
           y="0"
           x="0">4</tspan><tspan
           id="tspan44"
           y="-7.3242164"
           x="6.9999948">+</tspan></text>
<text
         id="text52"
         style="font-variant:normal;font-size:8.00024414px;font-family:'Nimbus Roman';-inkscape-font-specification:NimbusRomNo9L-Regu;writing-mode:lr-tb;fill:#000000;fill-opacity:1;fill-rule:nonzero;stroke:none"
         transform="matrix(1,0,0,-1,91.000001,442.60157)"><tspan
           id="tspan48"
           y="0"
           x="0 3.7521145 7.5042291 11.248343 13.504412 17.248526 21.000641 24.752754 28.504869 30.752937 36.75312 40.505234 42.753304 45.001373 48.753487 51.001556 54.75367 58.505783 60.753853">266.1390 Da, 0.00 %</tspan><tspan
           id="tspan50"
           y="7.9999962"
           x="22.999998 26.752111 29.000181 32.752296 36.50441 40.248524">0.2047</tspan></text>
<path
         id="path54"
         style="fill:none;stroke:#000000;stroke-width:1;stroke-linecap:butt;stroke-linejoin:round;stroke-miterlimit:10;stroke-dasharray:none;stroke-opacity:1"
         d="m 159,377 c 0,0 -68,0 -68,0 -6,0 -12,-6 -12,-12 0,0 0,-22 0,-22 0,-6 6,-12 12,-12 0,0 68,0 68,0 6,0 12,6 12,12 0,0 0,22 0,22 0,6 -6,12 -12,12" /><text
         id="text58"
         style="font-variant:normal;font-size:14.00024414px;font-family:'Nimbus Roman';-inkscape-font-specification:NimbusRomNo9L-Regu;writing-mode:lr-tb;fill:#000000;fill-opacity:1;fill-rule:nonzero;stroke:none"
         transform="matrix(1,0,0,-1,90,362.80078)"><tspan
           id="tspan56"
           y="0"
           x="0">C</tspan></text>
<text
         id="text62"
         style="font-variant:normal;font-size:11.66601562px;font-family:'Nimbus Roman';-inkscape-font-specification:NimbusRomNo9L-Regu;writing-mode:lr-tb;fill:#000000;fill-opacity:1;fill-rule:nonzero;stroke:none"
         transform="matrix(1,0,0,-1,100,359.13672)"><tspan
           id="tspan60"
           y="0"
           x="0 5.9963322">11</tspan></text>
<text
         id="text66"
         style="font-variant:normal;font-size:14.00024414px;font-family:'Nimbus Roman';-inkscape-font-specification:NimbusRomNo9L-Regu;writing-mode:lr-tb;fill:#000000;fill-opacity:1;fill-rule:nonzero;stroke:none"
         transform="matrix(1,0,0,-1,113,362.80078)"><tspan
           id="tspan64"
           y="0"
           x="0">H</tspan></text>
<text
         id="text70"
         style="font-variant:normal;font-size:11.66601562px;font-family:'Nimbus Roman';-inkscape-font-specification:NimbusRomNo9L-Regu;writing-mode:lr-tb;fill:#000000;fill-opacity:1;fill-rule:nonzero;stroke:none"
         transform="matrix(1,0,0,-1,123,359.13672)"><tspan
           id="tspan68"
           y="0"
           x="0 5.9963322">11</tspan></text>
<text
         id="text74"
         style="font-variant:normal;font-size:14.00024414px;font-family:'Nimbus Roman';-inkscape-font-specification:NimbusRomNo9L-Regu;writing-mode:lr-tb;fill:#000000;fill-opacity:1;fill-rule:nonzero;stroke:none"
         transform="matrix(1,0,0,-1,136,362.80078)"><tspan
           id="tspan72"
           y="0"
           x="0">O</tspan></text>
<text
         id="text80"
         style="font-variant:normal;font-size:11.66601562px;font-family:'Nimbus Roman';-inkscape-font-specification:NimbusRomNo9L-Regu;writing-mode:lr-tb;fill:#000000;fill-opacity:1;fill-rule:nonzero;stroke:none"
         transform="matrix(1,0,0,-1,146,359.13672)"><tspan
           id="tspan76"
           y="0"
           x="0">4</tspan><tspan
           id="tspan78"
           y="-7.3242164"
           x="6.9999948">+</tspan></text>
<text
         id="text86"
         style="font-variant:normal;font-size:8.00024414px;font-family:'Nimbus Roman';-inkscape-font-specification:NimbusRomNo9L-Regu;writing-mode:lr-tb;fill:#000000;fill-opacity:1;fill-rule:nonzero;stroke:none"
         transform="matrix(1,0,0,-1,86.999999,345.60157)"><tspan
           id="tspan82"
           y="0"
           x="0 3.7521145 7.5042291 11.248343 13.504412 17.248526 21.000641 24.752754 28.504869 30.752937 36.75312 40.505234 42.753304 45.001373 48.753487 52.5056 56.249714 58.505783 62.2579 66.002014 68.25808">207.0660 Da, 100.00 %</tspan><tspan
           id="tspan84"
           y="7.9999962"
           x="25.500002 28.500093 32.252209 34.500275 38.252392 42.004505 45.748619">-0.3286</tspan></text>
<path
         id="path88"
         style="fill:none;stroke:#000000;stroke-width:1;stroke-linecap:butt;stroke-linejoin:round;stroke-miterlimit:10;stroke-dasharray:none;stroke-opacity:1"
         d="m 125,427.965 c 0,-12.024 0,-27.137 0,-40.488" /><path
         id="path90"
         style="fill:#000000;fill-opacity:1;fill-rule:nonzero;stroke:#000000;stroke-width:1;stroke-linecap:butt;stroke-linejoin:round;stroke-miterlimit:10;stroke-dasharray:none;stroke-opacity:1"
         d="m 128.5,387.242 -3.5,-10 -3.5,10 z" /><text
         id="text94"
         style="font-variant:normal;font-size:14.00024414px;font-family:'Nimbus Roman';-inkscape-font-specification:NimbusRomNo9L-Regu;writing-mode:lr-tb;fill:#000000;fill-opacity:1;fill-rule:nonzero;stroke:none"
         transform="matrix(1,0,0,-1,125,399.80078)"><tspan
           id="tspan92"
           y="0"
           x="0">C</tspan></text>
<text
         id="text98"
         style="font-variant:normal;font-size:11.66601562px;font-family:'Nimbus Roman';-inkscape-font-specification:NimbusRomNo9L-Regu;writing-mode:lr-tb;fill:#000000;fill-opacity:1;fill-rule:nonzero;stroke:none"
         transform="matrix(1,0,0,-1,135,396.13672)"><tspan
           id="tspan96"
           y="0"
           x="0">3</tspan></text>
<text
         id="text102"
         style="font-variant:normal;font-size:14.00024414px;font-family:'Nimbus Roman';-inkscape-font-specification:NimbusRomNo9L-Regu;writing-mode:lr-tb;fill:#000000;fill-opacity:1;fill-rule:nonzero;stroke:none"
         transform="matrix(1,0,0,-1,142,399.80078)"><tspan
           id="tspan100"
           y="0"
           x="0">H</tspan></text>
<text
         id="text106"
         style="font-variant:normal;font-size:11.66601562px;font-family:'Nimbus Roman';-inkscape-font-specification:NimbusRomNo9L-Regu;writing-mode:lr-tb;fill:#000000;fill-opacity:1;fill-rule:nonzero;stroke:none"
         transform="matrix(1,0,0,-1,152,396.13672)"><tspan
           id="tspan104"
           y="0"
           x="0">9</tspan></text>
<text
         id="text110"
         style="font-variant:normal;font-size:14.00024414px;font-family:'Nimbus Roman';-inkscape-font-specification:NimbusRomNo9L-Regu;writing-mode:lr-tb;fill:#000000;fill-opacity:1;fill-rule:nonzero;stroke:none"
         transform="matrix(1,0,0,-1,159,399.80078)"><tspan
           id="tspan108"
           y="0"
           x="0">N</tspan></text>
<path
         id="path112"
         style="fill:none;stroke:#000000;stroke-width:1;stroke-linecap:butt;stroke-linejoin:round;stroke-miterlimit:10;stroke-dasharray:none;stroke-opacity:1"
         d="m 157,280 c 0,0 -64,0 -64,0 -6,0 -12,-6 -12,-12 0,0 0,-22 0,-22 0,-6 6,-12 12,-12 0,0 64,0 64,0 6,0 12,6 12,12 0,0 0,22 0,22 0,6 -6,12 -12,12" /><text
         id="text116"
         style="font-variant:normal;font-size:14.00024414px;font-family:'Nimbus Roman';-inkscape-font-specification:NimbusRomNo9L-Regu;writing-mode:lr-tb;fill:#000000;fill-opacity:1;fill-rule:nonzero;stroke:none"
         transform="matrix(1,0,0,-1,96,265.80078)"><tspan
           id="tspan114"
           y="0"
           x="0">C</tspan></text>
<text
         id="text120"
         style="font-variant:normal;font-size:11.66601562px;font-family:'Nimbus Roman';-inkscape-font-specification:NimbusRomNo9L-Regu;writing-mode:lr-tb;fill:#000000;fill-opacity:1;fill-rule:nonzero;stroke:none"
         transform="matrix(1,0,0,-1,106,262.13672)"><tspan
           id="tspan118"
           y="0"
           x="0">8</tspan></text>
<text
         id="text124"
         style="font-variant:normal;font-size:14.00024414px;font-family:'Nimbus Roman';-inkscape-font-specification:NimbusRomNo9L-Regu;writing-mode:lr-tb;fill:#000000;fill-opacity:1;fill-rule:nonzero;stroke:none"
         transform="matrix(1,0,0,-1,113,265.80078)"><tspan
           id="tspan122"
           y="0"
           x="0">H</tspan></text>
<text
         id="text128"
         style="font-variant:normal;font-size:11.66601562px;font-family:'Nimbus Roman';-inkscape-font-specification:NimbusRomNo9L-Regu;writing-mode:lr-tb;fill:#000000;fill-opacity:1;fill-rule:nonzero;stroke:none"
         transform="matrix(1,0,0,-1,123,262.13672)"><tspan
           id="tspan126"
           y="0"
           x="0">7</tspan></text>
<text
         id="text132"
         style="font-variant:normal;font-size:14.00024414px;font-family:'Nimbus Roman';-inkscape-font-specification:NimbusRomNo9L-Regu;writing-mode:lr-tb;fill:#000000;fill-opacity:1;fill-rule:nonzero;stroke:none"
         transform="matrix(1,0,0,-1,130,265.80078)"><tspan
           id="tspan130"
           y="0"
           x="0">O</tspan></text>
<text
         id="text138"
         style="font-variant:normal;font-size:11.66601562px;font-family:'Nimbus Roman';-inkscape-font-specification:NimbusRomNo9L-Regu;writing-mode:lr-tb;fill:#000000;fill-opacity:1;fill-rule:nonzero;stroke:none"
         transform="matrix(1,0,0,-1,140,262.13672)"><tspan
           id="tspan134"
           y="0"
           x="0">2</tspan><tspan
           id="tspan136"
           y="-7.3242164"
           x="6.9999948">+</tspan></text>
<text
         id="text144"
         style="font-variant:normal;font-size:8.00024414px;font-family:'Nimbus Roman';-inkscape-font-specification:NimbusRomNo9L-Regu;writing-mode:lr-tb;fill:#000000;fill-opacity:1;fill-rule:nonzero;stroke:none"
         transform="matrix(1,0,0,-1,89.000004,248.60157)"><tspan
           id="tspan140"
           y="0"
           x="0 3.7521145 7.5042291 11.248343 13.504412 17.248526 21.000641 24.752754 28.504869 30.752937 36.75312 40.505234 42.753304 45.001373 48.753487 52.5056 54.75367 58.505783 62.2579 64.505966">135.0430 Da, 78.74 %</tspan><tspan
           id="tspan142"
           y="7.9999962"
           x="25.000002 28.752117 31.000185 34.7523 38.504414 42.248528">1.2747</tspan></text>
<path
         id="path146"
         style="fill:none;stroke:#000000;stroke-width:1;stroke-linecap:butt;stroke-linejoin:round;stroke-miterlimit:10;stroke-dasharray:none;stroke-opacity:1"
         d="m 125,330.965 c 0,-12.024 0,-27.137 0,-40.488" /><path
         id="path148"
         style="fill:#000000;fill-opacity:1;fill-rule:nonzero;stroke:#000000;stroke-width:1;stroke-linecap:butt;stroke-linejoin:round;stroke-miterlimit:10;stroke-dasharray:none;stroke-opacity:1"
         d="m 128.5,290.242 -3.5,-10 -3.5,10 z" /><text
         id="text152"
         style="font-variant:normal;font-size:14.00024414px;font-family:'Nimbus Roman';-inkscape-font-specification:NimbusRomNo9L-Regu;writing-mode:lr-tb;fill:#000000;fill-opacity:1;fill-rule:nonzero;stroke:none"
         transform="matrix(1,0,0,-1,125,302.80078)"><tspan
           id="tspan150"
           y="0"
           x="0">C</tspan></text>
<text
         id="text156"
         style="font-variant:normal;font-size:11.66601562px;font-family:'Nimbus Roman';-inkscape-font-specification:NimbusRomNo9L-Regu;writing-mode:lr-tb;fill:#000000;fill-opacity:1;fill-rule:nonzero;stroke:none"
         transform="matrix(1,0,0,-1,135,299.13672)"><tspan
           id="tspan154"
           y="0"
           x="0">3</tspan></text>
<text
         id="text160"
         style="font-variant:normal;font-size:14.00024414px;font-family:'Nimbus Roman';-inkscape-font-specification:NimbusRomNo9L-Regu;writing-mode:lr-tb;fill:#000000;fill-opacity:1;fill-rule:nonzero;stroke:none"
         transform="matrix(1,0,0,-1,142,302.80078)"><tspan
           id="tspan158"
           y="0"
           x="0">H</tspan></text>
<text
         id="text164"
         style="font-variant:normal;font-size:11.66601562px;font-family:'Nimbus Roman';-inkscape-font-specification:NimbusRomNo9L-Regu;writing-mode:lr-tb;fill:#000000;fill-opacity:1;fill-rule:nonzero;stroke:none"
         transform="matrix(1,0,0,-1,152,299.13672)"><tspan
           id="tspan162"
           y="0"
           x="0">4</tspan></text>
<text
         id="text168"
         style="font-variant:normal;font-size:14.00024414px;font-family:'Nimbus Roman';-inkscape-font-specification:NimbusRomNo9L-Regu;writing-mode:lr-tb;fill:#000000;fill-opacity:1;fill-rule:nonzero;stroke:none"
         transform="matrix(1,0,0,-1,159,302.80078)"><tspan
           id="tspan166"
           y="0"
           x="0">O</tspan></text>
<text
         id="text172"
         style="font-variant:normal;font-size:11.66601562px;font-family:'Nimbus Roman';-inkscape-font-specification:NimbusRomNo9L-Regu;writing-mode:lr-tb;fill:#000000;fill-opacity:1;fill-rule:nonzero;stroke:none"
         transform="matrix(1,0,0,-1,169,299.13672)"><tspan
           id="tspan170"
           y="0"
           x="0">2</tspan></text>
<path
         id="path174"
         style="fill:none;stroke:#000000;stroke-width:1;stroke-linecap:butt;stroke-linejoin:round;stroke-miterlimit:10;stroke-dasharray:none;stroke-opacity:1"
         d="m 120,183 c 0,0 -68,0 -68,0 -6,0 -12,-6 -12,-12 0,0 0,-22 0,-22 0,-6 6,-12 12,-12 0,0 68,0 68,0 6,0 12,6 12,12 0,0 0,22 0,22 0,6 -6,12 -12,12" /><text
         id="text178"
         style="font-variant:normal;font-size:14.00024414px;font-family:'Nimbus Roman';-inkscape-font-specification:NimbusRomNo9L-Regu;writing-mode:lr-tb;fill:#000000;fill-opacity:1;fill-rule:nonzero;stroke:none"
         transform="matrix(1,0,0,-1,60.5,168.80078)"><tspan
           id="tspan176"
           y="0"
           x="0">C</tspan></text>
<text
         id="text182"
         style="font-variant:normal;font-size:11.66601562px;font-family:'Nimbus Roman';-inkscape-font-specification:NimbusRomNo9L-Regu;writing-mode:lr-tb;fill:#000000;fill-opacity:1;fill-rule:nonzero;stroke:none"
         transform="matrix(1,0,0,-1,70.5,165.13672)"><tspan
           id="tspan180"
           y="0"
           x="0">8</tspan></text>
<text
         id="text186"
         style="font-variant:normal;font-size:14.00024414px;font-family:'Nimbus Roman';-inkscape-font-specification:NimbusRomNo9L-Regu;writing-mode:lr-tb;fill:#000000;fill-opacity:1;fill-rule:nonzero;stroke:none"
         transform="matrix(1,0,0,-1,77.5,168.80078)"><tspan
           id="tspan184"
           y="0"
           x="0">H</tspan></text>
<text
         id="text190"
         style="font-variant:normal;font-size:11.66601562px;font-family:'Nimbus Roman';-inkscape-font-specification:NimbusRomNo9L-Regu;writing-mode:lr-tb;fill:#000000;fill-opacity:1;fill-rule:nonzero;stroke:none"
         transform="matrix(1,0,0,-1,87.5,165.13672)"><tspan
           id="tspan188"
           y="0"
           x="0">5</tspan></text>
<text
         id="text194"
         style="font-variant:normal;font-size:14.00024414px;font-family:'Nimbus Roman';-inkscape-font-specification:NimbusRomNo9L-Regu;writing-mode:lr-tb;fill:#000000;fill-opacity:1;fill-rule:nonzero;stroke:none"
         transform="matrix(1,0,0,-1,94.5,168.80078)"><tspan
           id="tspan192"
           y="0"
           x="0">O</tspan></text>
<text
         id="text198"
         style="font-variant:normal;font-size:11.66601562px;font-family:'Nimbus Roman';-inkscape-font-specification:NimbusRomNo9L-Regu;writing-mode:lr-tb;fill:#000000;fill-opacity:1;fill-rule:nonzero;stroke:none"
         transform="matrix(1,0,0,-1,104.5,172.46094)"><tspan
           id="tspan196"
           y="0"
           x="0">+</tspan></text>
<text
         id="text204"
         style="font-variant:normal;font-size:8.00024414px;font-family:'Nimbus Roman';-inkscape-font-specification:NimbusRomNo9L-Regu;writing-mode:lr-tb;fill:#000000;fill-opacity:1;fill-rule:nonzero;stroke:none"
         transform="matrix(1,0,0,-1,47.999999,151.60157)"><tspan
           id="tspan200"
           y="0"
           x="0 3.7521145 7.5042291 11.248343 13.504412 17.248526 21.000641 24.752754 28.504869 30.752937 36.75312 40.505234 42.753304 45.001373 48.753487 52.5056 56.249714 58.505783 62.2579 66.002014 68.25808">117.0350 Da, 100.00 %</tspan><tspan
           id="tspan202"
           y="7.9999962"
           x="27 30.752113 33.000183 36.752296 40.50441 44.248524">3.1463</tspan></text>
<path
         id="path206"
         style="fill:none;stroke:#000000;stroke-width:1;stroke-linecap:butt;stroke-linejoin:round;stroke-miterlimit:10;stroke-dasharray:none;stroke-opacity:1"
         d="M 115.953,233.965 C 110.922,221.703 104.566,206.227 99.008,192.688" /><path
         id="path208"
         style="fill:#000000;fill-opacity:1;fill-rule:nonzero;stroke:#000000;stroke-width:1;stroke-linecap:butt;stroke-linejoin:round;stroke-miterlimit:10;stroke-dasharray:none;stroke-opacity:1"
         d="m 102.168,191.164 -7.035,-7.922 0.558,10.582 z" /><text
         id="text212"
         style="font-variant:normal;font-size:14.00024414px;font-family:'Nimbus Roman';-inkscape-font-specification:NimbusRomNo9L-Regu;writing-mode:lr-tb;fill:#000000;fill-opacity:1;fill-rule:nonzero;stroke:none"
         transform="matrix(1,0,0,-1,107,205.80078)"><tspan
           id="tspan210"
           y="0"
           x="0">H</tspan></text>
<text
         id="text216"
         style="font-variant:normal;font-size:11.66601562px;font-family:'Nimbus Roman';-inkscape-font-specification:NimbusRomNo9L-Regu;writing-mode:lr-tb;fill:#000000;fill-opacity:1;fill-rule:nonzero;stroke:none"
         transform="matrix(1,0,0,-1,117,202.13672)"><tspan
           id="tspan214"
           y="0"
           x="0">2</tspan></text>
<text
         id="text220"
         style="font-variant:normal;font-size:14.00024414px;font-family:'Nimbus Roman';-inkscape-font-specification:NimbusRomNo9L-Regu;writing-mode:lr-tb;fill:#000000;fill-opacity:1;fill-rule:nonzero;stroke:none"
         transform="matrix(1,0,0,-1,124,205.80078)"><tspan
           id="tspan218"
           y="0"
           x="0">O</tspan></text>
<path
         id="path222"
         style="fill:none;stroke:#000000;stroke-width:1;stroke-linecap:butt;stroke-linejoin:round;stroke-miterlimit:10;stroke-dasharray:none;stroke-opacity:1"
         d="m 226,183 c 0,0 -64,0 -64,0 -6,0 -12,-6 -12,-12 0,0 0,-22 0,-22 0,-6 6,-12 12,-12 0,0 64,0 64,0 6,0 12,6 12,12 0,0 0,22 0,22 0,6 -6,12 -12,12" /><text
         id="text226"
         style="font-variant:normal;font-size:14.00024414px;font-family:'Nimbus Roman';-inkscape-font-specification:NimbusRomNo9L-Regu;writing-mode:lr-tb;fill:#000000;fill-opacity:1;fill-rule:nonzero;stroke:none"
         transform="matrix(1,0,0,-1,168.5,168.80078)"><tspan
           id="tspan224"
           y="0"
           x="0">C</tspan></text>
<text
         id="text230"
         style="font-variant:normal;font-size:11.66601562px;font-family:'Nimbus Roman';-inkscape-font-specification:NimbusRomNo9L-Regu;writing-mode:lr-tb;fill:#000000;fill-opacity:1;fill-rule:nonzero;stroke:none"
         transform="matrix(1,0,0,-1,178.5,165.13672)"><tspan
           id="tspan228"
           y="0"
           x="0">7</tspan></text>
<text
         id="text234"
         style="font-variant:normal;font-size:14.00024414px;font-family:'Nimbus Roman';-inkscape-font-specification:NimbusRomNo9L-Regu;writing-mode:lr-tb;fill:#000000;fill-opacity:1;fill-rule:nonzero;stroke:none"
         transform="matrix(1,0,0,-1,185.5,168.80078)"><tspan
           id="tspan232"
           y="0"
           x="0">H</tspan></text>
<text
         id="text238"
         style="font-variant:normal;font-size:11.66601562px;font-family:'Nimbus Roman';-inkscape-font-specification:NimbusRomNo9L-Regu;writing-mode:lr-tb;fill:#000000;fill-opacity:1;fill-rule:nonzero;stroke:none"
         transform="matrix(1,0,0,-1,195.5,165.13672)"><tspan
           id="tspan236"
           y="0"
           x="0">7</tspan></text>
<text
         id="text242"
         style="font-variant:normal;font-size:14.00024414px;font-family:'Nimbus Roman';-inkscape-font-specification:NimbusRomNo9L-Regu;writing-mode:lr-tb;fill:#000000;fill-opacity:1;fill-rule:nonzero;stroke:none"
         transform="matrix(1,0,0,-1,202.5,168.80078)"><tspan
           id="tspan240"
           y="0"
           x="0">O</tspan></text>
<text
         id="text246"
         style="font-variant:normal;font-size:11.66601562px;font-family:'Nimbus Roman';-inkscape-font-specification:NimbusRomNo9L-Regu;writing-mode:lr-tb;fill:#000000;fill-opacity:1;fill-rule:nonzero;stroke:none"
         transform="matrix(1,0,0,-1,212.5,172.46094)"><tspan
           id="tspan244"
           y="0"
           x="0">+</tspan></text>
<text
         id="text252"
         style="font-variant:normal;font-size:8.00024414px;font-family:'Nimbus Roman';-inkscape-font-specification:NimbusRomNo9L-Regu;writing-mode:lr-tb;fill:#000000;fill-opacity:1;fill-rule:nonzero;stroke:none"
         transform="matrix(1,0,0,-1,158,151.60157)"><tspan
           id="tspan248"
           y="0"
           x="0 3.7521145 7.5042291 11.248343 13.504412 17.248526 21.000641 24.752754 28.504869 30.752937 36.75312 40.505234 42.753304 45.001373 48.753487 52.5056 54.75367 58.505783 62.2579 64.505966">107.0480 Da, 11.78 %</tspan><tspan
           id="tspan250"
           y="7.9999962"
           x="25.000002 28.752117 31.000185 34.7523 38.504414 42.248528">2.6896</tspan></text>
<path
         id="path254"
         style="fill:none;stroke:#000000;stroke-width:1;stroke-linecap:butt;stroke-linejoin:round;stroke-miterlimit:10;stroke-dasharray:none;stroke-opacity:1"
         d="m 141.004,233.965 c 9.164,-12.617 20.801,-28.641 30.836,-42.457" /><path
         id="path256"
         style="fill:#000000;fill-opacity:1;fill-rule:nonzero;stroke:#000000;stroke-width:1;stroke-linecap:butt;stroke-linejoin:round;stroke-miterlimit:10;stroke-dasharray:none;stroke-opacity:1"
         d="m 174.801,193.391 3.043,-10.149 -8.707,6.035 z" /><text
         id="text260"
         style="font-variant:normal;font-size:14.00024414px;font-family:'Nimbus Roman';-inkscape-font-specification:NimbusRomNo9L-Regu;writing-mode:lr-tb;fill:#000000;fill-opacity:1;fill-rule:nonzero;stroke:none"
         transform="matrix(1,0,0,-1,163,204.80078)"><tspan
           id="tspan258"
           y="0"
           x="0 9.0021572">CO</tspan></text>
<path
         id="path262"
         style="fill:none;stroke:#000000;stroke-width:1;stroke-linecap:butt;stroke-linejoin:round;stroke-miterlimit:10;stroke-dasharray:none;stroke-opacity:1"
         d="m 224,86 c 0,0 -60,0 -60,0 -6,0 -12,-6 -12,-12 0,0 0,-22 0,-22 0,-6 6,-12 12,-12 0,0 60,0 60,0 6,0 12,6 12,12 0,0 0,22 0,22 0,6 -6,12 -12,12" /><text
         id="text266"
         style="font-variant:normal;font-size:14.00024414px;font-family:'Nimbus Roman';-inkscape-font-specification:NimbusRomNo9L-Regu;writing-mode:lr-tb;fill:#000000;fill-opacity:1;fill-rule:nonzero;stroke:none"
         transform="matrix(1,0,0,-1,173.5,71.800781)"><tspan
           id="tspan264"
           y="0"
           x="0">C</tspan></text>
<text
         id="text270"
         style="font-variant:normal;font-size:11.66601562px;font-family:'Nimbus Roman';-inkscape-font-specification:NimbusRomNo9L-Regu;writing-mode:lr-tb;fill:#000000;fill-opacity:1;fill-rule:nonzero;stroke:none"
         transform="matrix(1,0,0,-1,183.5,68.136719)"><tspan
           id="tspan268"
           y="0"
           x="0">7</tspan></text>
<text
         id="text274"
         style="font-variant:normal;font-size:14.00024414px;font-family:'Nimbus Roman';-inkscape-font-specification:NimbusRomNo9L-Regu;writing-mode:lr-tb;fill:#000000;fill-opacity:1;fill-rule:nonzero;stroke:none"
         transform="matrix(1,0,0,-1,190.5,71.800781)"><tspan
           id="tspan272"
           y="0"
           x="0">H</tspan></text>
<text
         id="text280"
         style="font-variant:normal;font-size:11.66601562px;font-family:'Nimbus Roman';-inkscape-font-specification:NimbusRomNo9L-Regu;writing-mode:lr-tb;fill:#000000;fill-opacity:1;fill-rule:nonzero;stroke:none"
         transform="matrix(1,0,0,-1,200.5,68.136719)"><tspan
           id="tspan276"
           y="0"
           x="0">5</tspan><tspan
           id="tspan278"
           y="-7.3242164"
           x="6.9999948">+</tspan></text>
<text
         id="text286"
         style="font-variant:normal;font-size:8.00024414px;font-family:'Nimbus Roman';-inkscape-font-specification:NimbusRomNo9L-Regu;writing-mode:lr-tb;fill:#000000;fill-opacity:1;fill-rule:nonzero;stroke:none"
         transform="matrix(1,0,0,-1,160,54.601566)"><tspan
           id="tspan282"
           y="0"
           x="0 3.7521145 7.5042291 9.7522974 13.504412 17.248526 21.000641 24.752754 27.000824 33.001007 36.75312 39.00119 41.24926 45.001373 48.753487 51.001556 54.75367 58.505783 60.753853">89.0400 Da, 32.61 %</tspan><tspan
           id="tspan284"
           y="7.9999962"
           x="22.999998 26.752111 29.000181 32.752296 36.50441 40.248524">3.0990</tspan></text>
<path
         id="path288"
         style="fill:none;stroke:#000000;stroke-width:1;stroke-linecap:butt;stroke-linejoin:round;stroke-miterlimit:10;stroke-dasharray:none;stroke-opacity:1"
         d="m 194,136.965 c 0,-12.024 0,-27.137 0,-40.488" /><path
         id="path290"
         style="fill:#000000;fill-opacity:1;fill-rule:nonzero;stroke:#000000;stroke-width:1;stroke-linecap:butt;stroke-linejoin:round;stroke-miterlimit:10;stroke-dasharray:none;stroke-opacity:1"
         d="m 197.5,96.242 -3.5,-10 -3.5,10 z" /><text
         id="text294"
         style="font-variant:normal;font-size:14.00024414px;font-family:'Nimbus Roman';-inkscape-font-specification:NimbusRomNo9L-Regu;writing-mode:lr-tb;fill:#000000;fill-opacity:1;fill-rule:nonzero;stroke:none"
         transform="matrix(1,0,0,-1,194,108.80078)"><tspan
           id="tspan292"
           y="0"
           x="0">H</tspan></text>
<text
         id="text298"
         style="font-variant:normal;font-size:11.66601562px;font-family:'Nimbus Roman';-inkscape-font-specification:NimbusRomNo9L-Regu;writing-mode:lr-tb;fill:#000000;fill-opacity:1;fill-rule:nonzero;stroke:none"
         transform="matrix(1,0,0,-1,204,105.13672)"><tspan
           id="tspan296"
           y="0"
           x="0">2</tspan></text>
<text
         id="text302"
         style="font-variant:normal;font-size:14.00024414px;font-family:'Nimbus Roman';-inkscape-font-specification:NimbusRomNo9L-Regu;writing-mode:lr-tb;fill:#000000;fill-opacity:1;fill-rule:nonzero;stroke:none"
         transform="matrix(1,0,0,-1,211,108.80078)"><tspan
           id="tspan300"
           y="0"
           x="0">O</tspan></text>
</g></g></svg>