<?xml version="1.0" encoding="UTF-8" standalone="no"?>
<!-- Created with Inkscape (http://www.inkscape.org/) -->

<svg
   xmlns:dc="http://purl.org/dc/elements/1.1/"
   xmlns:cc="http://creativecommons.org/ns#"
   xmlns:rdf="http://www.w3.org/1999/02/22-rdf-syntax-ns#"
   xmlns:svg="http://www.w3.org/2000/svg"
   xmlns="http://www.w3.org/2000/svg"
   xmlns:sodipodi="http://sodipodi.sourceforge.net/DTD/sodipodi-0.dtd"
   xmlns:inkscape="http://www.inkscape.org/namespaces/inkscape"
   version="1.1"
   id="svg2"
   xml:space="preserve"
   width="675.00531"
   height="221.18013"
   viewBox="0 0 675.00531 221.18013"
   sodipodi:docname="sirius_4_mid.svg"
   inkscape:version="0.92.4 (5da689c313, 2019-01-14)"><metadata
     id="metadata8"><rdf:RDF><cc:Work
         rdf:about=""><dc:format>image/svg+xml</dc:format><dc:type
           rdf:resource="http://purl.org/dc/dcmitype/StillImage" /><dc:title></dc:title></cc:Work></rdf:RDF></metadata><defs
     id="defs6"><clipPath
       clipPathUnits="userSpaceOnUse"
       id="clipPath18"><path
         d="M 0,165.996 H 3545.5 V 0 H 0 Z"
         id="path16"
         inkscape:connector-curvature="0" /></clipPath><clipPath
       clipPathUnits="userSpaceOnUse"
       id="clipPath96"><path
         d="M 0,165.996 V 0 h 3545.5 v 163.501 z"
         id="path94"
         inkscape:connector-curvature="0" /></clipPath></defs><sodipodi:namedview
     pagecolor="#ffffff"
     bordercolor="#666666"
     borderopacity="1"
     objecttolerance="10"
     gridtolerance="10"
     guidetolerance="10"
     inkscape:pageopacity="0"
     inkscape:pageshadow="2"
     inkscape:window-width="1920"
     inkscape:window-height="1016"
     id="namedview4"
     showgrid="false"
     fit-margin-top="0"
     fit-margin-left="0"
     fit-margin-right="0"
     fit-margin-bottom="0"
     inkscape:zoom="1.2522916"
     inkscape:cx="364.74132"
     inkscape:cy="74.101759"
     inkscape:window-x="0"
     inkscape:window-y="27"
     inkscape:window-maximized="1"
     inkscape:current-layer="g10" /><g
     id="g10"
     inkscape:groupmode="layer"
     inkscape:label="sirius_MF"
     transform="matrix(1.3333333,0,0,-1.3333333,-2.6666666e-4,221.18013)"><g
       id="g12"><g
         id="g14"
         clip-path="url(#clipPath18)"><text
   id="text22"
   style="font-style:italic;font-variant:normal;font-weight:bold;font-stretch:semi-condensed;font-size:112px;font-family:'Arial Narrow';-inkscape-font-specification:ArialNarrow-BoldItalic;writing-mode:lr-tb;opacity:1;fill:#052738;fill-opacity:1;fill-rule:nonzero;stroke:none"
   transform="matrix(1,0,0,-1,397.2461,34.6733)"><tspan
     style="opacity:1;fill:#052738;fill-opacity:1"
     id="tspan20"
     y="0"
     x="0">4</tspan></text>



</g></g><g
       style="opacity:1;fill:#052738;fill-opacity:1"
       transform="translate(137.3283,18.5193)"
       id="g30"><path
         inkscape:connector-curvature="0"
         id="path32"
         style="opacity:1;fill:#052738;fill-opacity:1;fill-rule:nonzero;stroke:none"
         d="m 0,0 h 5.34 l 4.715,34.09 z" /></g><g
       style="opacity:1;fill:#052738;fill-opacity:1"
       transform="translate(230.9337,18.5193)"
       id="g34"><path
         inkscape:connector-curvature="0"
         id="path36"
         style="opacity:1;fill:#052738;fill-opacity:1;fill-rule:nonzero;stroke:none"
         d="m 0,0 h 5.34 l 5.379,34.98 z" /></g><g
       style="opacity:1;fill:#052738;fill-opacity:1"
       transform="translate(130.3632,31.6017)"
       id="g38"><path
         sodipodi:nodetypes="ccccccccccccccccccccccccccccccccc"
         inkscape:connector-curvature="0"
         id="path40"
         style="opacity:1;fill:#052738;fill-opacity:1;fill-rule:nonzero;stroke:none"
         d="m 0,0 -58.972,-0.063 -1.121,47.231 -20.161,-47.196 2.289,61.357 -23.785,-61.392 h -3.285 l -2.841,25.661 -22.487,-33.211 h 7.878 l 9.993,15.378 1.547,-15.378 h 13.559 l 11.382,30.188 -1.722,-30.188 h 12.011 l 9.965,24.785 -0.258,-24.785 H 6.012 L 23.874,52.269 15.645,-7.613 h 84.371 l 16.52,52.985 -6.892,-52.985 227.50936,-0.05632 3.191,3.722 -3.191,3.82799999 L 118.664,-0.085 127.172,95.648 93.821,-0.063 24.821,0 36.137,110.098 Z" /></g><g
       style="opacity:1;fill:#052738;fill-opacity:1"
       transform="translate(479.4338,33.2586)"
       id="g42"><path
         inkscape:connector-curvature="0"
         id="path44"
         style="opacity:1;fill:#052738;fill-opacity:1;fill-rule:nonzero;stroke:none"
         d="M 0,0 4.648,-4.649 26.742,22.093 Z" /></g><g
       style="opacity:1;fill:#052738;fill-opacity:1"
       transform="translate(473.0349,28.7109)"
       id="g46"><path
         inkscape:connector-curvature="0"
         id="path48"
         style="opacity:1;fill:#052738;fill-opacity:1;fill-rule:nonzero;stroke:none"
         d="M 0,0 4.648,4.648 -22.093,26.743 Z" /></g><g
       style="opacity:1;fill:#052738;fill-opacity:1"
       transform="translate(479.5112,22.095)"
       id="g50"><path
         inkscape:connector-curvature="0"
         id="path52"
         style="opacity:1;fill:#052738;fill-opacity:1;fill-rule:nonzero;stroke:none"
         d="M 0,0 26.743,-22.095 4.648,4.648 Z" /></g><g
       style="opacity:1;fill:#052738;fill-opacity:1"
       transform="translate(450.9885,0.1638)"
       id="g54"><path
         inkscape:connector-curvature="0"
         id="path56"
         style="opacity:1;fill:#052738;fill-opacity:1;fill-rule:nonzero;stroke:none"
         d="m 0,0 26.742,22.095 -4.649,4.648 z" /></g><g
       style="opacity:1;fill:#052738;fill-opacity:1"
       transform="translate(169.0902,149.9301)"
       id="g58"><path
         inkscape:connector-curvature="0"
         id="path60"
         style="opacity:1;fill:#052738;fill-opacity:1;fill-rule:nonzero;stroke:none"
         d="M 0,0 1.816,-3.172 17.574,7.972 Z" /></g><g
       style="opacity:1;fill:#052738;fill-opacity:1"
       transform="translate(164.9925,148.4181)"
       id="g62"><path
         inkscape:connector-curvature="0"
         id="path64"
         style="opacity:1;fill:#052738;fill-opacity:1;fill-rule:nonzero;stroke:none"
         d="M 0,0 3.172,1.82 -7.898,17.467 H -7.927 Z" /></g><g
       style="opacity:1;fill:#052738;fill-opacity:1"
       transform="translate(167.508,143.9226)"
       id="g66"><path
         inkscape:connector-curvature="0"
         id="path68"
         style="opacity:1;fill:#052738;fill-opacity:1;fill-rule:nonzero;stroke:none"
         d="M 0,0 11.144,-15.755 3.173,1.82 Z" /></g><g
       style="opacity:1;fill:#052738;fill-opacity:1"
       transform="translate(148.9959,136.2978)"
       id="g70"><path
         inkscape:connector-curvature="0"
         id="path72"
         style="opacity:1;fill:#052738;fill-opacity:1;fill-rule:nonzero;stroke:none"
         d="m 0,0 17.578,7.971 -1.823,3.173 z" /></g><g
       style="opacity:1;fill:#052738;fill-opacity:1"
       transform="translate(260.2386,135.6912)"
       id="g74"><path
         inkscape:connector-curvature="0"
         id="path76"
         style="opacity:1;fill:#052738;fill-opacity:1;fill-rule:nonzero;stroke:none"
         d="M 0,0 1.824,-3.172 17.578,7.978 Z" /></g><g
       style="opacity:1;fill:#052738;fill-opacity:1"
       transform="translate(256.1445,134.1837)"
       id="g78"><path
         inkscape:connector-curvature="0"
         id="path80"
         style="opacity:1;fill:#052738;fill-opacity:1;fill-rule:nonzero;stroke:none"
         d="M 0,0 3.172,1.821 -7.977,17.574 Z" /></g><g
       style="opacity:1;fill:#052738;fill-opacity:1"
       transform="translate(258.6564,129.6873)"
       id="g82"><path
         inkscape:connector-curvature="0"
         id="path84"
         style="opacity:1;fill:#052738;fill-opacity:1;fill-rule:nonzero;stroke:none"
         d="M 0,0 11.148,-15.757 3.175,1.817 Z" /></g><g
       style="opacity:1;fill:#052738;fill-opacity:1"
       transform="translate(240.1488,122.058)"
       id="g86"><path
         inkscape:connector-curvature="0"
         id="path88"
         style="opacity:1;fill:#052738;fill-opacity:1;fill-rule:nonzero;stroke:none"
         d="m 0,0 17.578,7.973 -1.821,3.176 z" /></g><g
       style="opacity:1;fill:#052738;fill-opacity:1"
       id="g90"><g
         style="opacity:1;fill:#052738;fill-opacity:1"
         clip-path="url(#clipPath96)"
         id="g92"><g
           style="opacity:1;fill:#052738;fill-opacity:1"
           transform="translate(133.3589,90.9883)"
           id="g98"><path
             inkscape:connector-curvature="0"
             id="path100"
             style="opacity:1;fill:#052738;fill-opacity:1;fill-rule:nonzero;stroke:none"
             d="m 0,0 c 1.547,7.774 6.02,25.844 -17.41,25.844 -15.551,0 -24.679,-7.356 -27.539,-20.801 -0.89,-4.203 -0.441,-8.512 1.215,-12.086 4.313,-7.879 12.961,-12.186 19.355,-18.176 3.227,-2.628 4.657,-5.781 3.672,-10.402 -1.269,-5.988 -4.906,-9.246 -11.105,-9.246 -6.828,0 -8.195,4.937 -6.723,11.871 l 1.274,5.992 h -14.707 l -1.231,-5.781 c -2.992,-14.078 1.211,-23.957 18.863,-23.957 14.395,0 25.926,7.777 29.098,22.695 1.449,6.832 0.879,11.559 -3.113,16.496 -3.25,3.997 -10.93,9.879 -15.117,12.926 -3.996,2.942 -7.289,5.254 -6.016,11.242 1.141,5.36 4.715,7.356 9.652,7.356 7.672,0 7.301,-6.199 5.895,-12.82 L -14.183,0 Z m 56.321,-20.91 h 1.996 c 3.57,0 7.121,-0.105 10.285,-1.051 4.727,-1.472 3.219,-8.09 2.297,-12.926 l -0.738,-3.464 c -1.118,-5.253 -2.532,-12.399 -1.934,-16.496 h 16.184 l 0.312,1.468 c -2.539,1.891 0.02,14.922 1.426,21.539 l 0.715,3.364 c 1.609,7.566 0.164,13.132 -8.309,14.289 l 0.043,0.211 c 10.168,1.367 14.293,10.402 16.125,19.019 3.082,14.496 -5.643,18.91 -18.359,18.91 H 48.52 l -16.75,-78.8 h 14.711 l 7.215,33.937 z m 4.453,33.305 H 71.7 C 77.246,12.289 80.614,10.82 78.735,1.996 77.059,-5.887 72.61,-9.039 67.707,-9.351 H 56.149 Z m 104.984,-42.133 c -1.609,-7.563 -3.742,-15.129 -13.304,-15.129 -9.981,0 -8.899,7.566 -7.293,15.129 l 11.414,53.691 H 141.864 L 130.184,-31 c -3.707,-17.441 0.203,-25.742 19.641,-25.742 19.226,0 26.668,8.301 30.375,25.742 l 11.679,54.953 H 177.168 Z M 245.27,0 c 1.547,7.774 6.02,25.844 -17.41,25.844 -15.551,0 -24.68,-7.356 -27.539,-20.801 -0.895,-4.203 -0.446,-8.512 1.215,-12.086 4.312,-7.879 12.961,-12.186 19.355,-18.176 3.223,-2.628 4.656,-5.781 3.672,-10.402 -1.273,-5.988 -4.906,-9.246 -11.105,-9.246 -6.829,0 -8.196,4.937 -6.723,11.871 l 1.273,5.992 h -14.711 l -1.226,-5.781 c -2.996,-14.078 1.211,-23.957 18.863,-23.957 14.395,0 25.926,7.777 29.094,22.695 1.453,6.832 0.883,11.559 -3.11,16.496 -3.25,3.997 -10.929,9.879 -15.117,12.926 -3.996,2.942 -7.289,5.254 -6.015,11.242 1.14,5.36 4.714,7.356 9.652,7.356 7.672,0 7.301,-6.199 5.895,-12.82 L 231.086,0 Z" /></g></g></g></g></svg>